<svg width="156" height="44" viewBox="0 0 156 44" fill="none" xmlns="http://www.w3.org/2000/svg">
<path d="M13.9721 5H25.091L26.9442 6.85316V17.9721L13.9721 5Z" fill="#0169C9" stroke="#CCCCCC"/>
<path d="M26.9442 6.85316V25.3847L34.3568 17.9721V14.2658L26.9442 6.85316Z" fill="#0197FD" stroke="#CCCCCC"/>
<path d="M34.3568 17.9721V29.091L32.5037 30.9442H21.3847L34.3568 17.9721Z" fill="#B3DEFD" stroke="#CCCCCC"/>
<path d="M13.9721 30.9442H32.5037L25.091 38.3568H21.3847L13.9721 30.9442Z" fill="#B3DEFD" stroke="#CCCCCC"/>
<path d="M21.3847 38.3568H10.2658L8.41263 36.5037V25.3847L21.3847 38.3568Z" fill="#0197FD" stroke="#CCCCCC"/>
<path d="M8.41263 36.5037V17.9721L1 25.3847V29.091L8.41263 36.5037Z" fill="#0169C9" stroke="#CCCCCC"/>
<path d="M10.2658 5H13.9721L21.3847 12.4126H2.85316L10.2658 5Z" fill="#013397" stroke="#CCCCCC"/>
<path d="M1 25.3847V14.2658L2.85316 12.4126H13.9721L1 25.3847Z" fill="#013397" stroke="#CCCCCC"/>
<path d="M61.24 21.896C62.632 22.352 63.736 23.12 64.552 24.2C65.368 25.256 65.776 26.576 65.776 28.16C65.776 30.344 64.936 32.036 63.256 33.236C61.576 34.412 59.128 35 55.912 35H43.384V9.8H55.192C58.168 9.8 60.46 10.388 62.068 11.564C63.676 12.716 64.48 14.312 64.48 16.352C64.48 17.6 64.192 18.704 63.616 19.664C63.04 20.624 62.248 21.368 61.24 21.896ZM48.064 13.472V20.42H54.688C56.32 20.42 57.568 20.132 58.432 19.556C59.32 18.956 59.764 18.092 59.764 16.964C59.764 15.812 59.32 14.948 58.432 14.372C57.568 13.772 56.32 13.472 54.688 13.472H48.064ZM55.624 31.328C59.248 31.328 61.06 30.116 61.06 27.692C61.06 25.268 59.248 24.056 55.624 24.056H48.064V31.328H55.624ZM74.5147 35.252C72.5227 35.252 70.9627 34.712 69.8347 33.632C68.7307 32.528 68.1787 30.98 68.1787 28.988V8.288H72.6787V28.664C72.6787 30.584 73.5787 31.544 75.3787 31.544C75.9787 31.544 76.5187 31.424 76.9987 31.184L77.2147 34.784C76.3747 35.096 75.4747 35.252 74.5147 35.252ZM86.9049 31.436C88.9929 31.436 90.7329 30.74 92.1249 29.348L94.5009 32.12C93.6609 33.152 92.5809 33.932 91.2609 34.46C89.9409 34.988 88.4529 35.252 86.7969 35.252C84.6849 35.252 82.8249 34.832 81.2169 33.992C79.6089 33.152 78.3609 31.988 77.4729 30.5C76.6089 28.988 76.1769 27.284 76.1769 25.388C76.1769 23.516 76.5969 21.836 77.4369 20.348C78.3009 18.836 79.4769 17.66 80.9649 16.82C82.4769 15.98 84.1809 15.56 86.0769 15.56C87.8769 15.56 89.5089 15.956 90.9729 16.748C92.4609 17.516 93.6369 18.632 94.5009 20.096C95.3649 21.536 95.7969 23.228 95.7969 25.172L81.0729 28.052C81.5289 29.156 82.2609 29.996 83.2689 30.572C84.2769 31.148 85.4889 31.436 86.9049 31.436ZM86.0769 19.16C84.4209 19.16 83.0769 19.7 82.0449 20.78C81.0369 21.86 80.5329 23.312 80.5329 25.136V25.172L91.4049 23.084C91.0929 21.908 90.4569 20.96 89.4969 20.24C88.5609 19.52 87.4209 19.16 86.0769 19.16ZM108.868 15.56C111.292 15.56 113.236 16.268 114.7 17.684C116.164 19.1 116.896 21.2 116.896 23.984V35H112.396V24.56C112.396 22.88 112 21.62 111.208 20.78C110.416 19.916 109.288 19.484 107.824 19.484C106.168 19.484 104.86 19.988 103.9 20.996C102.94 21.98 102.46 23.408 102.46 25.28V35H97.9603V15.776H102.244V18.26C102.988 17.372 103.924 16.7 105.052 16.244C106.18 15.788 107.452 15.56 108.868 15.56ZM139.449 8.288V35H135.129V32.516C134.385 33.428 133.461 34.112 132.357 34.568C131.277 35.024 130.077 35.252 128.757 35.252C126.909 35.252 125.241 34.844 123.753 34.028C122.289 33.212 121.137 32.06 120.297 30.572C119.457 29.06 119.037 27.332 119.037 25.388C119.037 23.444 119.457 21.728 120.297 20.24C121.137 18.752 122.289 17.6 123.753 16.784C125.241 15.968 126.909 15.56 128.757 15.56C130.029 15.56 131.193 15.776 132.249 16.208C133.305 16.64 134.205 17.288 134.949 18.152V8.288H139.449ZM129.297 31.4C130.377 31.4 131.349 31.16 132.213 30.68C133.077 30.176 133.761 29.468 134.265 28.556C134.769 27.644 135.021 26.588 135.021 25.388C135.021 24.188 134.769 23.132 134.265 22.22C133.761 21.308 133.077 20.612 132.213 20.132C131.349 19.628 130.377 19.376 129.297 19.376C128.217 19.376 127.245 19.628 126.381 20.132C125.517 20.612 124.833 21.308 124.329 22.22C123.825 23.132 123.573 24.188 123.573 25.388C123.573 26.588 123.825 27.644 124.329 28.556C124.833 29.468 125.517 30.176 126.381 30.68C127.245 31.16 128.217 31.4 129.297 31.4ZM147.459 18.584C148.755 16.568 151.035 15.56 154.299 15.56V19.844C153.915 19.772 153.567 19.736 153.255 19.736C151.503 19.736 150.135 20.252 149.151 21.284C148.167 22.292 147.675 23.756 147.675 25.676V35H143.175V15.776H147.459V18.584Z" fill="url(#paint0_linear_1_18)"/>
<defs>
<linearGradient id="paint0_linear_1_18" x1="40" y1="22" x2="156" y2="22" gradientUnits="userSpaceOnUse">
<stop stop-color="white"/>
<stop offset="1" stop-color="#CCCCCC"/>
</linearGradient>
</defs>
</svg>
